<?xml version="1.0" encoding="utf-8"?>
<!-- Generator: Adobe Illustrator 23.0.6, SVG Export Plug-In . SVG Version: 6.00 Build 0)  -->
<svg version="1.1" id="Layer_1" xmlns="http://www.w3.org/2000/svg" xmlns:xlink="http://www.w3.org/1999/xlink" x="0px" y="0px"
	 viewBox="0 0 135 20" style="enable-background:new 0 0 135 20;" xml:space="preserve">
<style type="text/css">
	.st0{fill-rule:evenodd;clip-rule:evenodd;fill:#FFC303;}
	.st1{fill-rule:evenodd;clip-rule:evenodd;fill:#FFFFFF;}
	.st2{fill-rule:evenodd;clip-rule:evenodd;fill:#DD2729;}
	.st3{fill-rule:evenodd;clip-rule:evenodd;fill:#4895B6;}
	.st4{fill-rule:evenodd;clip-rule:evenodd;fill:#FFD400;}
	.st5{fill-rule:evenodd;clip-rule:evenodd;fill:#C42128;}
	.st6{fill-rule:evenodd;clip-rule:evenodd;fill:#438BAA;}
	.st7{fill-rule:evenodd;clip-rule:evenodd;fill:#E4B60B;}
	.st8{fill-rule:evenodd;clip-rule:evenodd;fill:url(#SVGID_1_);}
</style>
<g>
	<path class="st0" d="M71.9,7.6c0,0.1-0.1,0.2-0.2,0.4l-2.8,2.8l0.7,3.9c0,0,0,0.1,0,0.2s0,0.2-0.1,0.3c-0.1,0.1-0.1,0.1-0.2,0.1
		s-0.2,0-0.3-0.1l-3.5-1.8L62,15.2c-0.1,0.1-0.2,0.1-0.3,0.1c-0.1,0-0.2,0-0.2-0.1c-0.1-0.1-0.1-0.2-0.1-0.3c0,0,0-0.1,0-0.2
		l0.7-3.9L59.3,8c-0.1-0.1-0.2-0.3-0.2-0.4c0-0.2,0.1-0.3,0.4-0.4l3.8-0.5l1.8-3.6c0.1-0.2,0.2-0.3,0.4-0.3c0.2,0,0.3,0.1,0.4,0.3
		l1.8,3.6l3.9,0.6C71.8,7.3,71.9,7.4,71.9,7.6z"/>
</g>
<g>
	<path class="st0" d="M86.9,7.6c0,0.1-0.1,0.2-0.2,0.4l-2.8,2.8l0.7,3.9c0,0,0,0.1,0,0.2s0,0.2-0.1,0.3s-0.1,0.1-0.2,0.1
		c-0.1,0-0.2,0-0.3-0.1l-3.5-1.8L77,15.2c-0.1,0.1-0.2,0.1-0.3,0.1s-0.2,0-0.2-0.1s-0.2-0.3-0.2-0.4c0,0,0-0.1,0-0.2l0.7-3.9
		l-2.8-2.8C74.1,7.8,74,7.6,74,7.5c0-0.2,0.1-0.3,0.4-0.4l3.9-0.4l1.8-3.6c0-0.2,0.2-0.3,0.3-0.3c0.2,0,0.3,0.1,0.4,0.3l1.8,3.6
		l3.9,0.6C86.8,7.3,86.9,7.4,86.9,7.6z"/>
</g>
<g>
	<path class="st0" d="M102,7.6c0,0.1-0.1,0.2-0.2,0.4L99,10.8l0.7,3.9c0,0,0,0.1,0,0.2s0,0.2-0.1,0.3s-0.1,0.1-0.2,0.1
		s-0.2,0-0.3-0.1l-3.5-1.8l-3.5,1.8c-0.1,0.1-0.2,0.1-0.3,0.1s-0.2,0-0.2-0.1s-0.3-0.3-0.3-0.4c0,0,0-0.1,0-0.2l0.7-3.9l-2.8-2.8
		C89.1,7.8,89,7.6,89,7.5c0-0.2,0.1-0.3,0.4-0.4l3.9-0.4l1.8-3.6c0.1-0.2,0.2-0.3,0.4-0.3c0.2,0,0.3,0.1,0.4,0.3l1.8,3.6l3.9,0.6
		C101.8,7.3,102,7.4,102,7.6z"/>
</g>
<g>
	<path class="st0" d="M117,7.6c0,0.1-0.1,0.2-0.2,0.4l-2.8,2.8l0.7,3.9c0,0,0,0.1,0,0.2s0,0.2-0.1,0.3s-0.1,0.1-0.2,0.1
		s-0.2,0-0.3-0.1l-3.6-1.9l-3.5,1.8c-0.1,0.1-0.2,0.1-0.3,0.1s-0.2,0-0.2-0.1c-0.1-0.1-0.1-0.2-0.1-0.3c0,0,0-0.1,0-0.2l0.7-3.9
		l-2.8-2.8c-0.1-0.1-0.2-0.3-0.2-0.4c0-0.2,0.1-0.3,0.4-0.4l3.8-0.4l1.8-3.6c0.1-0.2,0.2-0.3,0.4-0.3c0.2,0,0.3,0.1,0.4,0.3l1.8,3.6
		l3.9,0.6C116.8,7.3,117,7.4,117,7.6z"/>
</g>
<g id="Page-1">
	<g id="prisjakt-rgb">
		<path id="Fill-1" class="st1" d="M22.1,7.7v2.1h1c0.7,0,1.1-0.4,1.1-1.1c0-0.7-0.4-1.1-1.1-1.1H22.1z M25.2,6.8
			C25.7,7.3,26,8,26,8.7c0,0.8-0.3,1.4-0.8,1.9c-0.5,0.4-1.2,0.7-1.9,0.7h-1.2v2.5h-1.7V6.2h2.9C24,6.2,24.7,6.4,25.2,6.8z"/>
		<path id="Fill-3" class="st1" d="M27.9,9.2l-0.1-0.7h-1.5v5.3H28v-3c0.3-0.4,0.7-0.6,1.2-0.6h0.2V8.5h-0.1
			C28.7,8.5,28.2,8.8,27.9,9.2"/>
		<path id="Fill-5" class="st1" d="M30.8,6.1c-0.6,0-1,0.4-1,1s0.4,1,1,1c0.6,0,1-0.4,1-1S31.3,6.1,30.8,6.1"/>
		<polygon id="Fill-7" class="st1" points="30,13.8 31.6,13.8 31.6,8.5 30,8.5 		"/>
		<path id="Fill-9" class="st1" d="M36.5,12.1c0-0.8-0.5-1.3-1.7-1.6c-0.7-0.2-0.9-0.3-0.9-0.5c0-0.1,0-0.3,0.6-0.3
			c0.5,0,0.9,0.2,1.2,0.4l0.1,0.1L36.5,9l0,0c-0.4-0.4-1.1-0.6-1.8-0.6c-1.4,0-2.2,0.7-2.2,1.8c0,0.8,0.5,1.3,1.7,1.6
			c0.7,0.2,0.8,0.3,0.8,0.5c0,0.3-0.4,0.4-0.7,0.4c-0.5,0-1-0.2-1.4-0.5L32.8,12l-0.6,1.2l0,0c0.5,0.4,1.2,0.6,2,0.6
			C35.6,13.9,36.5,13.2,36.5,12.1"/>
		<path id="Fill-10" class="st1" d="M37.1,14.1c0,0.4-0.3,0.7-0.7,0.7c-0.3,0-0.6-0.2-0.7-0.4l-0.1-0.1l-1.1,1.1l0.1,0.1
			c0.5,0.5,1.1,0.8,1.9,0.8c1.3,0,2.3-0.9,2.3-2.2V8.5h-1.6V14.1z"/>
		<path id="Fill-11" class="st1" d="M37.9,6.1c-0.6,0-1,0.4-1,1s0.4,1,1,1c0.6,0,1-0.4,1-1S38.4,6.1,37.9,6.1"/>
		<path id="Fill-12" class="st1" d="M42.1,12.5c-0.7,0-1.1-0.5-1.1-1.3c0-0.8,0.4-1.3,1.1-1.3c0.4,0,0.7,0.2,1,0.6v1.4
			C42.8,12.3,42.5,12.5,42.1,12.5L42.1,12.5z M43.1,9c-0.2-0.3-0.7-0.6-1.5-0.6c-1.4,0-2.4,1.1-2.4,2.8c0,1.6,1,2.8,2.4,2.8
			c0.6,0,1.1-0.2,1.5-0.6l0.1,0.5h1.5V8.5h-1.5L43.1,9z"/>
		<polygon id="Fill-13" class="st1" points="50.5,8.5 48.5,8.5 46.9,11 46.9,6.1 45.3,6.1 45.3,13.8 46.6,13.8 47.8,12.1 48.8,13.8 
			50.6,13.8 48.9,10.7 		"/>
		<path id="Fill-14" class="st1" d="M54.1,12.2L54.1,12.2c-0.2,0.1-0.5,0.2-0.7,0.2c-0.4,0-0.6-0.2-0.6-0.6V9.9h1.5V8.5h-1.5V6.8
			h-1.6v1.7h0l-1,1.4h1.1v1.9c0,1.3,0.8,2.1,2.1,2.1c0.4,0,0.8-0.1,1.2-0.3l0.1,0L54.1,12.2z"/>
		<path id="Fill-15" class="st2" d="M11.3,2.8c4,0,7.2,3.2,7.2,7.2c0,4-3.2,7.2-7.2,7.2c-4,0-7.2-3.2-7.2-7.2
			C4.1,6,7.3,2.8,11.3,2.8"/>
		<path id="Fill-16" class="st3" d="M15.1,10c0,2.1-1.7,3.8-3.8,3.8c-2.1,0-3.8-1.7-3.8-3.8s1.7-3.8,3.8-3.8
			C13.4,6.2,15.1,7.9,15.1,10"/>
		<path id="Fill-17" class="st4" d="M7.5,10c0-2.1,1.7-3.8,3.8-3.8c2.1,0,3.8,1.7,3.8,3.8s-1.7,3.8-3.8,3.8
			C9.2,13.8,7.5,12.1,7.5,10 M16.8,10c0-1.2-0.4-2.3-1-3.2l0.7-0.7c-0.4-0.5-0.8-0.9-1.3-1.3l-0.7,0.7c-0.9-0.6-2-1-3.2-1
			c-1.2,0-2.3,0.4-3.1,1L7.4,4.8C7,5.2,6.5,5.6,6.2,6.1l0.7,0.7c-0.6,0.9-1,2-1,3.2c0,1.2,0.4,2.3,1,3.2l-0.7,0.7
			c0.4,0.5,0.8,0.9,1.3,1.3l0.7-0.7c0.9,0.6,2,1,3.2,1c1.2,0,2.3-0.4,3.2-1l0.7,0.7c0.5-0.4,0.9-0.8,1.3-1.3l-0.7-0.7
			C16.4,12.3,16.8,11.2,16.8,10"/>
		<path id="Fill-18" class="st5" d="M18.4,10.4l-2.5-3.3l0.6-0.6c-0.1-0.1-0.1-0.2-0.2-0.3l-0.6,0.6c0.6,0.9,1,2,1,3.2
			c0,1.2-0.4,2.3-1,3.1l0.7,0.7c-0.4,0.5-0.8,0.9-1.3,1.3l-0.7-0.7c-0.9,0.6-2,1-3.2,1c-1.2,0-2.3-0.4-3.2-1l-0.7,0.7
			c-0.4-0.3-0.8-0.6-1.1-1l-0.2,0.2c0.4,0.5,0.8,0.9,1.3,1.3l0.7-0.7l1.5,2c-0.4-0.1-0.8-0.2-1.1-0.4c-0.8-0.4-1.6-0.9-2.3-1.5
			c-0.7-0.7-1.2-1.4-1.5-2.3C4.4,11.9,4.2,11,4.2,10c0-1,0.2-1.9,0.6-2.8C5.1,6.4,5.6,5.6,6.3,5c0.7-0.7,1.4-1.2,2.3-1.5
			c0.9-0.4,1.8-0.6,2.8-0.6c1,0,1.9,0.2,2.8,0.6c0.8,0.4,1.6,0.9,2.3,1.5c0.7,0.7,1.2,1.4,1.5,2.3c0.4,0.9,0.6,1.8,0.6,2.8
			C18.4,10.1,18.4,10.3,18.4,10.4L18.4,10.4z M18.5,10.6c0-0.2,0-0.4,0-0.6c0-4-3.2-7.2-7.2-7.2c-4,0-7.2,3.2-7.2,7.2
			c0,4,3.2,7.2,7.2,7.2h0c0,0,0,0,0,0C15.1,17.2,18.2,14.3,18.5,10.6C18.5,10.6,18.5,10.6,18.5,10.6L18.5,10.6z"/>
		<path id="Fill-19" class="st5" d="M6.4,6.3C6.3,6.4,6.3,6.5,6.2,6.6l0.5,0.5c0-0.1,0.1-0.1,0.1-0.2L6.4,6.3z"/>
		<path id="Fill-20" class="st6" d="M7.9,10.4c0-2.1,1.7-3.8,3.8-3.8c0.9,0,1.8,0.3,2.5,0.9c-0.7-0.8-1.7-1.4-2.9-1.4
			c-2.1,0-3.8,1.7-3.8,3.8c0,1.2,0.5,2.2,1.4,2.9C8.3,12.3,7.9,11.4,7.9,10.4"/>
		<path id="Fill-21" class="st4" d="M11.3,11.8c-1,0-1.8-0.8-1.8-1.8s0.8-1.8,1.8-1.8c1,0,1.8,0.8,1.8,1.8S12.3,11.8,11.3,11.8z"/>
		<path id="Fill-22" class="st6" d="M12.9,9.1c0.2,0.3,0.3,0.6,0.3,0.9c0,1-0.8,1.8-1.8,1.8c-0.6,0-1.1-0.2-1.4-0.6
			c0.3,0.5,0.9,0.9,1.6,0.9c1,0,1.8-0.8,1.8-1.8C13.3,9.8,13.1,9.4,12.9,9.1"/>
		<path id="Fill-23" class="st7" d="M11.3,6c-0.5,0-1,0.1-1.5,0.3C9.3,6.6,8.9,6.8,8.5,7.2C8.2,7.6,7.9,8,7.7,8.5
			c-0.2,0.5-0.3,1-0.3,1.5c0,0.5,0.1,1,0.3,1.5c0.2,0.5,0.5,0.9,0.8,1.3c0.4,0.4,0.8,0.6,1.3,0.8c0.5,0.2,1,0.3,1.5,0.3
			s1-0.1,1.5-0.3c0.5-0.2,0.9-0.5,1.3-0.8c0.4-0.4,0.6-0.8,0.8-1.3c0.2-0.5,0.3-1,0.3-1.5c0-0.5-0.1-1-0.3-1.5
			c-0.2-0.5-0.5-0.9-0.8-1.3c-0.4-0.4-0.8-0.6-1.3-0.8C12.4,6.2,11.8,6,11.3,6 M11.3,6.2c2.1,0,3.8,1.7,3.8,3.8s-1.7,3.8-3.8,3.8
			S7.5,12.1,7.5,10S9.2,6.2,11.3,6.2"/>
	</g>
</g>
<g>
	<linearGradient id="SVGID_1_" gradientUnits="userSpaceOnUse" x1="118.6896" y1="9.0716" x2="131.6896" y2="9.0716">
		<stop  offset="0.5" style="stop-color:#FDBB00"/>
		<stop  offset="0.5053" style="stop-color:#D7D7D7"/>
	</linearGradient>
	<path class="st8" d="M131.7,7.7c0,0.1-0.1,0.2-0.2,0.4l-2.8,2.8l0.7,3.9c0,0,0,0.1,0,0.2c0,0.1,0,0.2-0.1,0.3s-0.1,0.1-0.2,0.1
		c-0.1,0-0.2,0-0.3-0.1l-3.5-1.8l-3.5,1.8c-0.1,0.1-0.2,0.1-0.3,0.1c-0.1,0-0.2,0-0.2-0.1S121,15,121,14.9c0,0,0-0.1,0-0.2l0.7-3.9
		l-2.8-2.8c-0.1-0.1-0.2-0.3-0.2-0.4c0-0.2,0.1-0.3,0.4-0.4l3.9-0.6l1.8-3.6c0.1-0.2,0.2-0.3,0.4-0.3s0.3,0.1,0.4,0.3l1.8,3.6
		l3.9,0.6C131.5,7.4,131.7,7.5,131.7,7.7z"/>
</g>
</svg>
