<?xml version="1.0" encoding="utf-8"?>
<!-- Generator: Adobe Illustrator 23.0.6, SVG Export Plug-In . SVG Version: 6.00 Build 0)  -->
<svg version="1.1" id="Layer_1" xmlns="http://www.w3.org/2000/svg" xmlns:xlink="http://www.w3.org/1999/xlink" x="0px" y="0px"
	 viewBox="0 0 135 20" style="enable-background:new 0 0 135 20;" xml:space="preserve">
<style type="text/css">
	.st0{fill-rule:evenodd;clip-rule:evenodd;fill:#FFFFCC;}
	.st1{fill-rule:evenodd;clip-rule:evenodd;fill:#FFFFFF;}
	.st2{fill-rule:evenodd;clip-rule:evenodd;fill:#DD2729;}
	.st3{fill-rule:evenodd;clip-rule:evenodd;fill:#4895B6;}
	.st4{fill-rule:evenodd;clip-rule:evenodd;fill:#FFD400;}
	.st5{fill-rule:evenodd;clip-rule:evenodd;fill:#C42128;}
	.st6{fill-rule:evenodd;clip-rule:evenodd;fill:#438BAA;}
	.st7{fill-rule:evenodd;clip-rule:evenodd;fill:#E4B60B;}
	.st8{fill-rule:evenodd;clip-rule:evenodd;fill:url(#SVGID_1_);}
</style>
<g>
	<path class="st0" d="M71.9,7.6c0,0.1-0.1,0.2-0.2,0.4l-2.8,2.8l0.7,3.9c0,0,0,0.1,0,0.2s0,0.2-0.1,0.3c-0.1,0.1-0.1,0.1-0.2,0.1
		s-0.2,0-0.3-0.1l-3.5-1.8L62,15.2c-0.1,0.1-0.2,0.1-0.3,0.1c-0.1,0-0.2,0-0.2-0.1c-0.1-0.1-0.1-0.2-0.1-0.3c0,0,0-0.1,0-0.2
		l0.7-3.9L59.3,8c-0.1-0.1-0.2-0.3-0.2-0.4c0-0.2,0.1-0.3,0.4-0.4l3.8-0.5l1.8-3.6c0.1-0.2,0.2-0.3,0.4-0.3c0.2,0,0.3,0.1,0.4,0.3
		l1.8,3.6l3.9,0.6C71.8,7.3,71.9,7.4,71.9,7.6z"/>
</g>
<g>
	<path class="st0" d="M86.9,7.6c0,0.1-0.1,0.2-0.2,0.4l-2.8,2.8l0.7,3.9c0,0,0,0.1,0,0.2s0,0.2-0.1,0.3s-0.1,0.1-0.2,0.1
		c-0.1,0-0.2,0-0.3-0.1l-3.5-1.8L77,15.2c-0.1,0.1-0.2,0.1-0.3,0.1s-0.2,0-0.2-0.1s-0.2-0.3-0.2-0.4c0,0,0-0.1,0-0.2l0.7-3.9
		l-2.8-2.8C74.1,7.8,74,7.6,74,7.5c0-0.2,0.1-0.3,0.4-0.4l3.9-0.4l1.8-3.6c0-0.2,0.2-0.3,0.3-0.3c0.2,0,0.3,0.1,0.4,0.3l1.8,3.6
		l3.9,0.6C86.8,7.3,86.9,7.4,86.9,7.6z"/>
</g>
<g>
	<path class="st0" d="M102,7.6c0,0.1-0.1,0.2-0.2,0.4L99,10.8l0.7,3.9c0,0,0,0.1,0,0.2s0,0.2-0.1,0.3s-0.1,0.1-0.2,0.1
		s-0.2,0-0.3-0.1l-3.5-1.8l-3.5,1.8c-0.1,0.1-0.2,0.1-0.3,0.1s-0.2,0-0.2-0.1s-0.3-0.3-0.3-0.4c0,0,0-0.1,0-0.2l0.7-3.9l-2.8-2.8
		C89.1,7.8,89,7.6,89,7.5c0-0.2,0.1-0.3,0.4-0.4l3.9-0.4l1.8-3.6c0.1-0.2,0.2-0.3,0.4-0.3c0.2,0,0.3,0.1,0.4,0.3l1.8,3.6l3.9,0.6
		C101.8,7.3,102,7.4,102,7.6z"/>
</g>
<g>
	<path class="st0" d="M117,7.6c0,0.1-0.1,0.2-0.2,0.4l-2.8,2.8l0.7,3.9c0,0,0,0.1,0,0.2s0,0.2-0.1,0.3s-0.1,0.1-0.2,0.1
		s-0.2,0-0.3-0.1l-3.6-1.9l-3.5,1.8c-0.1,0.1-0.2,0.1-0.3,0.1s-0.2,0-0.2-0.1c-0.1-0.1-0.1-0.2-0.1-0.3c0,0,0-0.1,0-0.2l0.7-3.9
		l-2.8-2.8c-0.1-0.1-0.2-0.3-0.2-0.4c0-0.2,0.1-0.3,0.4-0.4l3.8-0.4l1.8-3.6c0.1-0.2,0.2-0.3,0.4-0.3c0.2,0,0.3,0.1,0.4,0.3l1.8,3.6
		l3.9,0.6C116.8,7.3,117,7.4,117,7.6z"/>
</g>
<g id="Page-1">
	<g id="prisjakt-rgb">
		<path id="Fill-1" class="st1" d="M20.7,6.8v2.3h1.1c0.8,0,1.2-0.4,1.2-1.1c0-0.7-0.5-1.1-1.2-1.1H20.7z M24.1,5.9
			c0.6,0.5,0.9,1.2,0.9,2.1c0,0.8-0.3,1.6-0.9,2.1c-0.5,0.5-1.3,0.7-2.1,0.7h-1.3v2.8h-1.9V5.2H22C22.8,5.2,23.5,5.4,24.1,5.9z"/>
		<path id="Fill-3" class="st1" d="M27,8.5l-0.1-0.8h-1.6v5.8h1.8v-3.3c0.4-0.5,0.8-0.7,1.3-0.7h0.2V7.8h-0.1C28,7.8,27.4,8,27,8.5"
			/>
		<path id="Fill-5" class="st1" d="M30.2,5c-0.6,0-1,0.4-1,1s0.4,1,1,1s1-0.4,1-1S30.8,5,30.2,5"/>
		<polygon id="Fill-7" class="st1" points="29.3,13.5 31.1,13.5 31.1,7.7 29.3,7.7 		"/>
		<path id="Fill-9" class="st1" d="M36.5,11.7c0-0.9-0.6-1.4-1.8-1.7c-0.8-0.2-0.9-0.3-0.9-0.5c0-0.1,0-0.4,0.6-0.4
			c0.6,0,1,0.2,1.3,0.5l0.1,0.1l0.7-1.3l-0.1,0c-0.4-0.4-1.2-0.6-2-0.6c-1.5,0-2.4,0.7-2.4,1.9c0,0.9,0.5,1.4,1.9,1.7
			c0.8,0.2,0.9,0.3,0.9,0.5c0,0.3-0.4,0.4-0.7,0.4c-0.5,0-1.1-0.2-1.5-0.5l-0.1-0.1l-0.7,1.3l0.1,0c0.5,0.4,1.3,0.7,2.2,0.7
			C35.5,13.6,36.5,12.8,36.5,11.7"/>
		<path id="Fill-10" class="st1" d="M37.1,13.8c0,0.4-0.3,0.7-0.7,0.7c-0.4,0-0.6-0.2-0.8-0.4l-0.1-0.1l-1.2,1.2l0.1,0.1
			c0.5,0.5,1.2,0.8,2,0.8c1.4,0,2.5-1,2.5-2.4v-6h-1.8V13.8z"/>
		<path id="Fill-11" class="st1" d="M37.9,5c-0.6,0-1,0.4-1,1s0.4,1,1,1c0.6,0,1-0.4,1-1S38.5,5,37.9,5"/>
		<path id="Fill-12" class="st1" d="M42.5,12c-0.7,0-1.2-0.6-1.2-1.4c0-0.9,0.5-1.4,1.2-1.4c0.5,0,0.8,0.2,1.1,0.6v1.5
			C43.3,11.8,42.9,12,42.5,12L42.5,12z M43.7,8.2c-0.3-0.3-0.7-0.6-1.6-0.6c-1.5,0-2.6,1.2-2.6,3c0,1.8,1.1,3,2.6,3
			c0.7,0,1.2-0.2,1.6-0.6l0.1,0.5h1.6V7.7h-1.6L43.7,8.2z"/>
		<polygon id="Fill-13" class="st1" points="51.7,7.7 49.5,7.7 47.8,10.4 47.8,5.1 46,5.1 46,13.5 47.4,13.5 48.7,11.7 49.8,13.5 
			51.8,13.5 49.9,10.1 		"/>
		<path id="Fill-14" class="st1" d="M55.6,11.8L55.6,11.8c-0.3,0.2-0.5,0.2-0.8,0.2c-0.4,0-0.7-0.3-0.7-0.7v-2h1.6V7.7h-1.6V5.9
			h-1.8v1.9h0l-1.1,1.5h1.2v2.1c0,1.4,0.9,2.3,2.3,2.3c0.5,0,0.9-0.1,1.3-0.4l0.1,0L55.6,11.8z"/>
		<path id="Fill-15" class="st2" d="M9,1.5c4.4,0,7.9,3.5,7.9,7.9c0,4.4-3.5,7.9-7.9,7.9c-4.4,0-7.9-3.5-7.9-7.9
			C1.1,5,4.6,1.5,9,1.5"/>
		<path id="Fill-16" class="st3" d="M13.1,9.3c0,2.3-1.9,4.2-4.2,4.2c-2.3,0-4.2-1.9-4.2-4.2S6.7,5.2,9,5.2
			C11.3,5.2,13.1,7,13.1,9.3"/>
		<path id="Fill-17" class="st4" d="M4.8,9.3C4.8,7,6.7,5.2,9,5.2c2.3,0,4.2,1.9,4.2,4.2s-1.9,4.2-4.2,4.2
			C6.7,13.5,4.8,11.7,4.8,9.3 M14.9,9.3c0-1.3-0.4-2.5-1.1-3.4l0.8-0.8c-0.4-0.5-0.9-1-1.4-1.4l-0.8,0.8c-1-0.7-2.2-1.1-3.4-1.1
			c-1.3,0-2.5,0.4-3.4,1.1L4.7,3.7c-0.5,0.4-1,0.9-1.4,1.4l0.8,0.8C3.4,6.9,3,8.1,3,9.3c0,1.3,0.4,2.5,1.1,3.4l-0.8,0.8
			c0.4,0.5,0.9,1,1.4,1.4l0.8-0.8c1,0.7,2.2,1.1,3.4,1.1c1.3,0,2.5-0.4,3.4-1.1l0.8,0.8c0.5-0.4,1-0.9,1.4-1.4l-0.8-0.8
			C14.5,11.8,14.9,10.6,14.9,9.3"/>
		<path id="Fill-18" class="st5" d="M16.7,9.8L14,6.2l0.6-0.6c-0.1-0.1-0.2-0.2-0.2-0.3l-0.6,0.6c0.7,1,1.1,2.2,1.1,3.4
			c0,1.3-0.4,2.5-1.1,3.4l0.8,0.8c-0.4,0.5-0.9,1-1.4,1.4l-0.8-0.8c-1,0.7-2.2,1.1-3.4,1.1c-1.3,0-2.5-0.4-3.4-1.1L4.7,15
			c-0.4-0.3-0.8-0.7-1.2-1.1L3.4,14c0.4,0.5,0.9,1,1.4,1.4l0.7-0.7l1.6,2.2c-0.4-0.1-0.8-0.2-1.2-0.4c-0.9-0.4-1.8-0.9-2.5-1.7
			c-0.7-0.7-1.3-1.5-1.7-2.5c-0.4-1-0.6-2-0.6-3c0-1,0.2-2.1,0.6-3c0.4-0.9,0.9-1.8,1.7-2.5C4.2,3.2,5,2.6,5.9,2.2
			c1-0.4,2-0.6,3-0.6c1,0,2.1,0.2,3,0.6c0.9,0.4,1.8,0.9,2.5,1.7c0.7,0.7,1.3,1.5,1.7,2.5c0.4,1,0.6,2,0.6,3
			C16.7,9.5,16.7,9.6,16.7,9.8L16.7,9.8z M16.8,9.9c0-0.2,0-0.4,0-0.6c0-4.4-3.5-7.9-7.9-7.9C4.6,1.5,1.1,5,1.1,9.3
			c0,4.4,3.5,7.9,7.9,7.9h0c0,0,0,0,0,0C13.1,17.2,16.5,14,16.8,9.9C16.8,10,16.8,10,16.8,9.9L16.8,9.9z"/>
		<path id="Fill-19" class="st5" d="M3.6,5.4C3.5,5.4,3.5,5.5,3.4,5.6L4,6.1C4,6.1,4.1,6,4.1,5.9L3.6,5.4z"/>
		<path id="Fill-20" class="st6" d="M5.3,9.8c0-2.3,1.9-4.2,4.2-4.2c1,0,2,0.4,2.7,1C11.4,5.8,10.2,5.2,9,5.2C6.7,5.2,4.8,7,4.8,9.3
			c0,1.3,0.6,2.4,1.5,3.2C5.6,11.8,5.3,10.9,5.3,9.8"/>
		<path id="Fill-21" class="st4" d="M9,11.3c-1.1,0-2-0.9-2-2c0-1.1,0.9-2,2-2c1.1,0,2,0.9,2,2C10.9,10.4,10,11.3,9,11.3z"/>
		<path id="Fill-22" class="st6" d="M10.7,8.3c0.2,0.3,0.3,0.6,0.3,1c0,1.1-0.9,2-2,2c-0.6,0-1.1-0.3-1.5-0.7c0.3,0.6,1,1,1.7,1
			c1.1,0,2-0.9,2-2C11.1,9.1,11,8.7,10.7,8.3"/>
		<path id="Fill-23" class="st7" d="M9,5C8.4,5,7.8,5.2,7.3,5.4c-0.5,0.2-1,0.5-1.4,0.9C5.5,6.7,5.2,7.2,5,7.7
			C4.8,8.2,4.7,8.8,4.7,9.3c0,0.6,0.1,1.1,0.3,1.7c0.2,0.5,0.5,1,0.9,1.4c0.4,0.4,0.9,0.7,1.4,0.9c0.5,0.2,1.1,0.3,1.7,0.3
			c0.6,0,1.1-0.1,1.7-0.3c0.5-0.2,1-0.5,1.4-0.9c0.4-0.4,0.7-0.9,0.9-1.4c0.2-0.5,0.3-1.1,0.3-1.7c0-0.6-0.1-1.1-0.3-1.7
			c-0.2-0.5-0.5-1-0.9-1.4c-0.4-0.4-0.9-0.7-1.4-0.9C10.1,5.2,9.5,5,9,5 M9,5.2c2.3,0,4.2,1.9,4.2,4.2s-1.9,4.2-4.2,4.2
			s-4.2-1.9-4.2-4.2S6.7,5.2,9,5.2"/>
	</g>
</g>
<g>
	<linearGradient id="SVGID_1_" gradientUnits="userSpaceOnUse" x1="118.6896" y1="9.0716" x2="131.6896" y2="9.0716">
		<stop  offset="0.4988" style="stop-color:#FCF9CE"/>
		<stop  offset="0.4993" style="stop-color:#FCF8CC"/>
		<stop  offset="0.4995" style="stop-color:#FCF6C5"/>
		<stop  offset="0.4996" style="stop-color:#FCF3BA"/>
		<stop  offset="0.4997" style="stop-color:#FCEEA9"/>
		<stop  offset="0.4997" style="stop-color:#FCE793"/>
		<stop  offset="0.4998" style="stop-color:#FCDF77"/>
		<stop  offset="0.4999" style="stop-color:#FDD557"/>
		<stop  offset="0.4999" style="stop-color:#FDCA31"/>
		<stop  offset="0.5" style="stop-color:#FDBD08"/>
		<stop  offset="0.5" style="stop-color:#FDBB00"/>
		<stop  offset="0.5001" style="stop-color:#FABD11"/>
		<stop  offset="0.5003" style="stop-color:#F3C33A"/>
		<stop  offset="0.5006" style="stop-color:#ECC760"/>
		<stop  offset="0.5009" style="stop-color:#E6CC80"/>
		<stop  offset="0.5012" style="stop-color:#E1CF9C"/>
		<stop  offset="0.5016" style="stop-color:#DED2B2"/>
		<stop  offset="0.502" style="stop-color:#DBD4C2"/>
		<stop  offset="0.5025" style="stop-color:#D9D6CE"/>
		<stop  offset="0.5033" style="stop-color:#D7D7D5"/>
		<stop  offset="0.5053" style="stop-color:#D7D7D7"/>
	</linearGradient>
	<path class="st8" d="M131.7,7.7c0,0.1-0.1,0.2-0.2,0.4l-2.8,2.8l0.7,3.9c0,0,0,0.1,0,0.2c0,0.1,0,0.2-0.1,0.3s-0.1,0.1-0.2,0.1
		c-0.1,0-0.2,0-0.3-0.1l-3.5-1.8l-3.5,1.8c-0.1,0.1-0.2,0.1-0.3,0.1c-0.1,0-0.2,0-0.2-0.1S121,15,121,14.9c0,0,0-0.1,0-0.2l0.7-3.9
		l-2.8-2.8c-0.1-0.1-0.2-0.3-0.2-0.4c0-0.2,0.1-0.3,0.4-0.4l3.9-0.6l1.8-3.6c0.1-0.2,0.2-0.3,0.4-0.3s0.3,0.1,0.4,0.3l1.8,3.6
		l3.9,0.6C131.5,7.4,131.7,7.5,131.7,7.7z"/>
</g>
</svg>
