<?xml version="1.0" encoding="utf-8"?>
<!-- Generator: Adobe Illustrator 23.0.6, SVG Export Plug-In . SVG Version: 6.00 Build 0)  -->
<svg version="1.1" id="Layer_1" xmlns="http://www.w3.org/2000/svg" xmlns:xlink="http://www.w3.org/1999/xlink" x="0px" y="0px"
	 viewBox="0 0 135 20" style="enable-background:new 0 0 135 20;" xml:space="preserve">
<style type="text/css">
	.st0{fill-rule:evenodd;clip-rule:evenodd;fill:#FFDA00;}
	.st1{fill-rule:evenodd;clip-rule:evenodd;fill:#FFFFFF;}
	.st2{fill-rule:evenodd;clip-rule:evenodd;fill:#DD2729;}
	.st3{fill-rule:evenodd;clip-rule:evenodd;fill:#4895B6;}
	.st4{fill-rule:evenodd;clip-rule:evenodd;fill:#FFD400;}
	.st5{fill-rule:evenodd;clip-rule:evenodd;fill:#C42128;}
	.st6{fill-rule:evenodd;clip-rule:evenodd;fill:#438BAA;}
	.st7{fill-rule:evenodd;clip-rule:evenodd;fill:#E4B60B;}
	.st8{fill-rule:evenodd;clip-rule:evenodd;fill:url(#SVGID_1_);}
</style>
<g>
	<path class="st0" d="M74.9,7.6c0,0.1-0.1,0.2-0.2,0.4l-2.8,2.8l0.7,3.9c0,0,0,0.1,0,0.2s0,0.2-0.1,0.3s-0.1,0.1-0.2,0.1
		s-0.2,0-0.3-0.1l-3.5-1.8L65,15.2c-0.1,0.1-0.2,0.1-0.3,0.1c-0.1,0-0.2,0-0.2-0.1c-0.1-0.1-0.1-0.2-0.1-0.3c0,0,0-0.1,0-0.2
		l0.7-3.9L62.3,8c-0.1-0.1-0.2-0.3-0.2-0.4c0-0.2,0.1-0.3,0.4-0.4l3.8-0.5l1.8-3.6c0.1-0.2,0.2-0.3,0.4-0.3c0.2,0,0.3,0.1,0.4,0.3
		l1.8,3.6l3.9,0.6C74.8,7.3,74.9,7.4,74.9,7.6z"/>
</g>
<g>
	<path class="st0" d="M89.9,7.6c0,0.1-0.1,0.2-0.2,0.4l-2.8,2.8l0.7,3.9c0,0,0,0.1,0,0.2s0,0.2-0.1,0.3s-0.1,0.1-0.2,0.1
		s-0.2,0-0.3-0.1l-3.5-1.8L80,15.2c-0.1,0.1-0.2,0.1-0.3,0.1s-0.2,0-0.2-0.1s-0.2-0.3-0.2-0.4c0,0,0-0.1,0-0.2l0.7-3.9l-2.8-2.8
		C77.1,7.8,77,7.6,77,7.5c0-0.2,0.1-0.3,0.4-0.4l3.9-0.4l1.8-3.6c0-0.2,0.2-0.3,0.3-0.3c0.2,0,0.3,0.1,0.4,0.3l1.8,3.6l3.9,0.6
		C89.8,7.3,89.9,7.4,89.9,7.6z"/>
</g>
<g>
	<path class="st0" d="M105,7.6c0,0.1-0.1,0.2-0.2,0.4l-2.8,2.8l0.7,3.9c0,0,0,0.1,0,0.2s0,0.2-0.1,0.3s-0.1,0.1-0.2,0.1
		s-0.2,0-0.3-0.1l-3.5-1.8l-3.5,1.8c-0.1,0.1-0.2,0.1-0.3,0.1s-0.2,0-0.2-0.1s-0.3-0.3-0.3-0.4c0,0,0-0.1,0-0.2l0.7-3.9l-2.8-2.8
		C92.1,7.8,92,7.6,92,7.5c0-0.2,0.1-0.3,0.4-0.4l3.9-0.4l1.8-3.6c0.1-0.2,0.2-0.3,0.4-0.3c0.2,0,0.3,0.1,0.4,0.3l1.8,3.6l3.9,0.6
		C104.8,7.3,105,7.4,105,7.6z"/>
</g>
<g>
	<path class="st0" d="M120,7.6c0,0.1-0.1,0.2-0.2,0.4l-2.8,2.8l0.7,3.9c0,0,0,0.1,0,0.2s0,0.2-0.1,0.3s-0.1,0.1-0.2,0.1
		s-0.2,0-0.3-0.1l-3.6-1.9l-3.5,1.8c-0.1,0.1-0.2,0.1-0.3,0.1s-0.2,0-0.2-0.1c-0.1-0.1-0.1-0.2-0.1-0.3c0,0,0-0.1,0-0.2l0.7-3.9
		l-2.8-2.8c-0.1-0.1-0.2-0.3-0.2-0.4c0-0.2,0.1-0.3,0.4-0.4l3.8-0.4l1.8-3.6c0.1-0.2,0.2-0.3,0.4-0.3c0.2,0,0.3,0.1,0.4,0.3l1.8,3.6
		l3.9,0.6C119.8,7.3,120,7.4,120,7.6z"/>
</g>
<g id="Page-1">
	<g id="prisjakt-rgb">
		<path id="Fill-1" class="st1" d="M22.4,6.6V9h1.2c0.9,0,1.3-0.4,1.3-1.2s-0.5-1.2-1.3-1.2L22.4,6.6L22.4,6.6z M25.9,5.6
			c0.6,0.5,1,1.3,1,2.2c0,0.9-0.3,1.6-1,2.2c-0.5,0.5-1.4,0.8-2.2,0.8h-1.4v2.9h-1.9V5h3.3C24.5,4.9,25.3,5.1,25.9,5.6z"/>
		<path id="Fill-3" class="st1" d="M28.9,8.3l-0.1-0.9h-1.6v6h1.9v-3.4c0.4-0.5,0.9-0.8,1.4-0.8h0.2V7.6h-0.1
			C29.9,7.6,29.3,7.8,28.9,8.3"/>
		<path id="Fill-5" class="st1" d="M32.2,4.7c-0.6,0-1.1,0.4-1.1,1.1s0.4,1.1,1.1,1.1c0.6,0,1.1-0.4,1.1-1.1S32.8,4.7,32.2,4.7"/>
		<polygon id="Fill-7" class="st1" points="31.3,13.5 33.2,13.5 33.2,7.5 31.3,7.5 		"/>
		<path id="Fill-9" class="st1" d="M38.8,11.7c0-1-0.6-1.4-1.8-1.7c-0.9-0.2-1-0.3-1-0.5c0-0.1,0-0.4,0.6-0.4s1.1,0.2,1.4,0.5
			L38,9.7l0.8-1.4h-0.1c-0.4-0.4-1.3-0.6-2.1-0.6c-1.5,0-2.5,0.8-2.5,1.9c0,1,0.5,1.4,1.9,1.7c0.9,0.2,1,0.3,1,0.5
			c0,0.3-0.4,0.4-0.8,0.4c-0.5,0-1.2-0.2-1.5-0.5l-0.1-0.1l-0.7,1.4H34c0.5,0.4,1.4,0.8,2.3,0.8C37.7,13.6,38.8,12.9,38.8,11.7"/>
		<path id="Fill-10" class="st1" d="M39.4,13.8c0,0.4-0.3,0.8-0.8,0.8c-0.5,0-0.6-0.2-0.9-0.4V14l-1.3,1.3l0.1,0.1
			c0.5,0.5,1.3,0.9,2.1,0.9c1.4,0,2.6-1.1,2.6-2.5V7.5h-1.8L39.4,13.8L39.4,13.8z"/>
		<path id="Fill-11" class="st1" d="M40.3,4.7c-0.6,0-1.1,0.4-1.1,1.1s0.4,1.1,1.1,1.1c0.7,0,1.1-0.4,1.1-1.1S40.8,4.7,40.3,4.7"/>
		<path id="Fill-12" class="st1" d="M45,12c-0.8,0-1.3-0.6-1.3-1.4c0-1,0.5-1.4,1.3-1.4c0.5,0,0.9,0.2,1.2,0.6v1.5
			C45.9,11.8,45.4,12,45,12L45,12z M46.3,8c-0.3-0.3-0.8-0.6-1.6-0.6c-1.5,0-2.7,1.3-2.7,3.1s1.2,3.1,2.7,3.1c0.8,0,1.3-0.2,1.6-0.6
			l0.1,0.5H48v-6h-1.6L46.3,8z"/>
		<polygon id="Fill-13" class="st1" points="54.6,7.5 52.2,7.5 50.5,10.4 50.5,4.8 48.7,4.8 48.7,13.5 50.1,13.5 51.5,11.7 
			52.6,13.5 54.7,13.5 52.7,10.1 		"/>
		<path id="Fill-14" class="st1" d="M58.6,11.8L58.6,11.8C58.3,12,58.1,12,57.7,12c-0.4,0-0.8-0.3-0.8-0.8v-2h1.6V7.5h-1.5V5.6h-1.9
			v1.9l0,0L54,9.1h1.3v2.2c0,1.4,1,2.4,2.4,2.4c0.5,0,1-0.1,1.4-0.4h0.1L58.6,11.8z"/>
		<path id="Fill-15" class="st2" d="M10.2,1.1c4.5,0,8.2,3.7,8.2,8.2s-3.7,8.2-8.2,8.2S2,13.8,2,9.3S5.7,1.1,10.2,1.1"/>
		<path id="Fill-16" class="st3" d="M14.5,9.2c0,2.4-1.9,4.3-4.3,4.3s-4.3-1.9-4.3-4.3s2-4.3,4.4-4.3S14.5,6.8,14.5,9.2"/>
		<path id="Fill-17" class="st4" d="M5.9,9.2c0-2.4,1.9-4.3,4.3-4.3s4.3,1.9,4.3,4.3s-1.9,4.3-4.3,4.3C7.8,13.5,5.9,11.7,5.9,9.2
			 M16.3,9.2c0-1.4-0.4-2.6-1.2-3.6L16,4.7c-0.4-0.5-1-1.1-1.4-1.4l-0.9,0.9c-1-0.7-2.2-1.1-3.5-1.1c-1.4,0-2.6,0.4-3.6,1.1l-1-0.9
			c-0.5,0.4-1.1,1-1.4,1.4l0.9,0.9C4.4,6.7,3.9,7.9,3.9,9.2c0,1.4,0.4,2.6,1.2,3.6l-0.9,0.9c0.4,0.5,1,1.1,1.4,1.4l0.9-0.9
			c1.1,0.8,2.3,1.2,3.6,1.2c1.4,0,2.6-0.4,3.6-1.2l0.9,0.9c0.5-0.4,1.1-1,1.4-1.4l-0.9-0.9C15.9,11.8,16.3,10.5,16.3,9.2"/>
		<path id="Fill-18" class="st5" d="M18.2,9.7l-2.8-3.8L16,5.3c-0.1-0.1-0.2-0.2-0.2-0.3l-0.6,0.6c0.8,1.1,1.2,2.3,1.2,3.6
			c0,1.4-0.4,2.6-1.2,3.6l0.9,0.9c-0.4,0.5-1,1.1-1.4,1.4l-0.9-0.9c-1.1,0.8-2.3,1.2-3.6,1.2c-1.4,0-2.6-0.4-3.6-1.2l-1,1
			c-0.4-0.3-0.9-0.8-1.3-1.2l-0.1,0.1c0.4,0.5,1,1.1,1.4,1.4l0.8-0.8l1.6,2.3C7.8,17,7.4,16.8,7,16.6c-1-0.4-1.8-1-2.6-1.7
			s-1.4-1.5-1.7-2.6S2,10.3,2,9.2S2.2,7,2.6,6.1s1-1.8,1.7-2.6C5.2,2.9,6,2.2,6.9,1.8C8,1.5,9.1,1.3,10,1.3s2.2,0.2,3.1,0.6
			c0.9,0.4,1.8,1,2.6,1.7s1.4,1.5,1.7,2.6S18,8.3,18,9.3C18.2,9.4,18.2,9.5,18.2,9.7L18.2,9.7z M18.3,9.8c0-0.2,0-0.4,0-0.6
			c0-4.5-3.7-8.2-8.2-8.2C5.7,1.1,2,4.7,2,9.2c0,4.5,3.7,8.2,8.2,8.2l0,0l0,0C14.5,17.4,18,14,18.3,9.8C18.3,9.9,18.3,9.9,18.3,9.8
			L18.3,9.8z"/>
		<path id="Fill-19" class="st5" d="M4.6,5.1c-0.1,0-0.1,0.1-0.2,0.2L5,5.8c0,0,0.1-0.1,0.1-0.2L4.6,5.1z"/>
		<path id="Fill-20" class="st6" d="M6.3,9.7c0-2.4,1.9-4.3,4.3-4.3c1.1,0,2.1,0.4,2.8,1.1c-0.9-1-1.9-1.5-3.3-1.5
			C7.8,4.9,5.9,6.8,5.9,9.2c0,1.4,0.6,2.5,1.5,3.3C6.6,11.8,6.3,10.8,6.3,9.7"/>
		<path id="Fill-21" class="st4" d="M10.2,11.2c-1.2,0-2.1-1-2.1-2.1S9.1,7,10.2,7s2.1,1,2.1,2.1C12.1,10.4,11.3,11.2,10.2,11.2z"/>
		<path id="Fill-22" class="st6" d="M12,8.1c0.2,0.3,0.3,0.6,0.3,1.1c0,1.2-1,2.1-2.1,2.1c-0.6,0-1.2-0.3-1.5-0.8
			c0.3,0.6,1.1,1.1,1.7,1.1c1.2,0,2.1-1,2.1-2.1C12.4,9,12.2,8.5,12,8.1"/>
		<path id="Fill-23" class="st7" d="M10.2,4.7C9.6,4.7,9,4.9,8.5,5.1C8,5.3,7.4,5.6,7,6.1c-0.4,0.4-0.8,1-1,1.4
			C5.9,8,5.8,8.7,5.8,9.2c0,0.6,0.1,1.2,0.3,1.7c0.2,0.5,0.5,1.1,1,1.4c0.4,0.4,1,0.8,1.4,1s1.2,0.3,1.7,0.3c0.6,0,1.2-0.1,1.7-0.3
			c0.5-0.2,1.1-0.5,1.4-1c0.4-0.4,0.8-1,1-1.4c0.2-0.5,0.3-1.2,0.3-1.7S14.6,8,14.4,7.5c-0.2-0.5-0.5-1.1-1-1.4
			c-0.4-0.4-1-0.8-1.4-1C11.4,4.9,10.7,4.7,10.2,4.7 M10.2,4.9c2.4,0,4.3,1.9,4.3,4.3s-1.9,4.3-4.3,4.3s-4.3-1.9-4.3-4.3
			S7.8,4.9,10.2,4.9"/>
	</g>
</g>
<g>
	
		<linearGradient id="SVGID_1_" gradientUnits="userSpaceOnUse" x1="121.7" y1="779.05" x2="134.7" y2="779.05" gradientTransform="matrix(1 0 0 1 0 -770)">
		<stop  offset="0.4987" style="stop-color:#FEDA00"/>
		<stop  offset="0.4994" style="stop-color:#FED800"/>
		<stop  offset="0.4997" style="stop-color:#FED100"/>
		<stop  offset="0.4999" style="stop-color:#FDC600"/>
		<stop  offset="0.5" style="stop-color:#FDBB00"/>
		<stop  offset="0.5053" style="stop-color:#D7D7D7"/>
	</linearGradient>
	<path class="st8" d="M134.7,7.7c0,0.1-0.1,0.2-0.2,0.4l-2.8,2.8l0.7,3.9c0,0,0,0.1,0,0.2c0,0.1,0,0.2-0.1,0.3s-0.1,0.1-0.2,0.1
		c-0.1,0-0.2,0-0.3-0.1l-3.5-1.8l-3.5,1.8c-0.1,0.1-0.2,0.1-0.3,0.1c-0.1,0-0.2,0-0.2-0.1S124,15,124,14.9c0,0,0-0.1,0-0.2l0.7-3.9
		L121.9,8c-0.1-0.1-0.2-0.3-0.2-0.4c0-0.2,0.1-0.3,0.4-0.4l3.9-0.6l1.8-3.6c0.1-0.2,0.2-0.3,0.4-0.3s0.3,0.1,0.4,0.3l1.8,3.6
		l3.9,0.6C134.5,7.4,134.7,7.5,134.7,7.7z"/>
</g>
</svg>
