<?xml version="1.0" encoding="utf-8"?>
<!-- Generator: Adobe Illustrator 23.0.6, SVG Export Plug-In . SVG Version: 6.00 Build 0)  -->
<svg version="1.1" id="Layer_1" xmlns="http://www.w3.org/2000/svg" xmlns:xlink="http://www.w3.org/1999/xlink" x="0px" y="0px"
	 viewBox="0 0 135 20" style="enable-background:new 0 0 135 20;" xml:space="preserve">
<style type="text/css">
	.st0{fill-rule:evenodd;clip-rule:evenodd;fill:#FFC303;}
	.st1{fill-rule:evenodd;clip-rule:evenodd;fill:#FFFFFF;}
	.st2{fill-rule:evenodd;clip-rule:evenodd;fill:#DD2729;}
	.st3{fill-rule:evenodd;clip-rule:evenodd;fill:#4895B6;}
	.st4{fill-rule:evenodd;clip-rule:evenodd;fill:#FFD400;}
	.st5{fill-rule:evenodd;clip-rule:evenodd;fill:#C42128;}
	.st6{fill-rule:evenodd;clip-rule:evenodd;fill:#438BAA;}
	.st7{fill-rule:evenodd;clip-rule:evenodd;fill:#E4B60B;}
	.st8{fill-rule:evenodd;clip-rule:evenodd;fill:url(#SVGID_1_);}
</style>
<g>
	<path class="st0" d="M74.9,7.6c0,0.1-0.1,0.2-0.2,0.4l-2.8,2.8l0.7,3.9c0,0,0,0.1,0,0.2s0,0.2-0.1,0.3s-0.1,0.1-0.2,0.1
		s-0.2,0-0.3-0.1l-3.5-1.8L65,15.2c-0.1,0.1-0.2,0.1-0.3,0.1c-0.1,0-0.2,0-0.2-0.1c-0.1-0.1-0.1-0.2-0.1-0.3c0,0,0-0.1,0-0.2
		l0.7-3.9L62.3,8c-0.1-0.1-0.2-0.3-0.2-0.4c0-0.2,0.1-0.3,0.4-0.4l3.8-0.5l1.8-3.6c0.1-0.2,0.2-0.3,0.4-0.3c0.2,0,0.3,0.1,0.4,0.3
		l1.8,3.6l3.9,0.6C74.8,7.3,74.9,7.4,74.9,7.6z"/>
</g>
<g>
	<path class="st0" d="M89.9,7.6c0,0.1-0.1,0.2-0.2,0.4l-2.8,2.8l0.7,3.9c0,0,0,0.1,0,0.2s0,0.2-0.1,0.3s-0.1,0.1-0.2,0.1
		s-0.2,0-0.3-0.1l-3.5-1.8L80,15.2c-0.1,0.1-0.2,0.1-0.3,0.1s-0.2,0-0.2-0.1s-0.2-0.3-0.2-0.4c0,0,0-0.1,0-0.2l0.7-3.9l-2.8-2.8
		C77.1,7.8,77,7.6,77,7.5c0-0.2,0.1-0.3,0.4-0.4l3.9-0.4l1.8-3.6c0-0.2,0.2-0.3,0.3-0.3c0.2,0,0.3,0.1,0.4,0.3l1.8,3.6l3.9,0.6
		C89.8,7.3,89.9,7.4,89.9,7.6z"/>
</g>
<g>
	<path class="st0" d="M105,7.6c0,0.1-0.1,0.2-0.2,0.4l-2.8,2.8l0.7,3.9c0,0,0,0.1,0,0.2s0,0.2-0.1,0.3s-0.1,0.1-0.2,0.1
		s-0.2,0-0.3-0.1l-3.5-1.8l-3.5,1.8c-0.1,0.1-0.2,0.1-0.3,0.1s-0.2,0-0.2-0.1s-0.3-0.3-0.3-0.4c0,0,0-0.1,0-0.2l0.7-3.9l-2.8-2.8
		C92.1,7.8,92,7.6,92,7.5c0-0.2,0.1-0.3,0.4-0.4l3.9-0.4l1.8-3.6c0.1-0.2,0.2-0.3,0.4-0.3c0.2,0,0.3,0.1,0.4,0.3l1.8,3.6l3.9,0.6
		C104.8,7.3,105,7.4,105,7.6z"/>
</g>
<g>
	<path class="st0" d="M120,7.6c0,0.1-0.1,0.2-0.2,0.4l-2.8,2.8l0.7,3.9c0,0,0,0.1,0,0.2s0,0.2-0.1,0.3s-0.1,0.1-0.2,0.1
		s-0.2,0-0.3-0.1l-3.6-1.9l-3.5,1.8c-0.1,0.1-0.2,0.1-0.3,0.1s-0.2,0-0.2-0.1c-0.1-0.1-0.1-0.2-0.1-0.3c0,0,0-0.1,0-0.2l0.7-3.9
		l-2.8-2.8c-0.1-0.1-0.2-0.3-0.2-0.4c0-0.2,0.1-0.3,0.4-0.4l3.8-0.4l1.8-3.6c0.1-0.2,0.2-0.3,0.4-0.3c0.2,0,0.3,0.1,0.4,0.3l1.8,3.6
		l3.9,0.6C119.8,7.3,120,7.4,120,7.6z"/>
</g>
<g id="Page-1">
	<g id="prisjakt-rgb">
		<path id="Fill-1" class="st1" d="M21.1,7.2v2.5h1.2c0.9,0,1.3-0.4,1.3-1.2c0-0.8-0.5-1.2-1.3-1.2h-1.2V7.2z M24.7,6.2
			c0.6,0.5,1,1.3,1,2.3c0,0.9-0.3,1.7-1,2.3c-0.5,0.5-1.4,0.8-2.3,0.8h-1.4v3h-2v-9h3.4C23.3,5.5,24.1,5.7,24.7,6.2z"/>
		<path id="Fill-3" class="st1" d="M27.8,9l-0.1-0.9H26v6.2H28v-3.5c0.4-0.5,0.9-0.8,1.4-0.8h0.2V8.3h-0.1C28.9,8.3,28.3,8.5,27.8,9
			"/>
		<path id="Fill-5" class="st1" d="M31.3,5.3c-0.6,0-1.1,0.4-1.1,1.1s0.4,1.1,1.1,1.1c0.6,0,1.1-0.4,1.1-1.1S31.9,5.3,31.3,5.3"/>
		<polygon id="Fill-7" class="st1" points="30.3,14.4 32.3,14.4 32.3,8.2 30.3,8.2 		"/>
		<path id="Fill-9" class="st1" d="M38.1,12.5c0-1-0.6-1.5-1.9-1.8c-0.9-0.2-1-0.3-1-0.5c0-0.1,0-0.4,0.6-0.4c0.6,0,1.1,0.2,1.4,0.5
			l0.1,0.1l0.8-1.4H38c-0.4-0.4-1.3-0.6-2.2-0.6c-1.6,0-2.6,0.8-2.6,2c0,1,0.5,1.5,2,1.8c0.9,0.2,1,0.3,1,0.5c0,0.3-0.4,0.4-0.8,0.4
			c-0.5,0-1.2-0.2-1.6-0.5l-0.1-0.1L33,13.9h0.1c0.5,0.4,1.4,0.8,2.4,0.8C37,14.5,38.1,13.7,38.1,12.5"/>
		<path id="Fill-10" class="st1" d="M38.7,14.7c0,0.4-0.3,0.8-0.8,0.8s-0.6-0.2-0.9-0.4L37,14.9l-1.3,1.3l0.1,0.1
			c0.5,0.5,1.3,0.9,2.2,0.9c1.5,0,2.7-1.1,2.7-2.6V8.2h-1.9V14.7z"/>
		<path id="Fill-11" class="st1" d="M39.6,5.3c-0.6,0-1.1,0.4-1.1,1.1s0.4,1.1,1.1,1.1s1.1-0.4,1.1-1.1S40.2,5.3,39.6,5.3"/>
		<path id="Fill-12" class="st1" d="M44.5,12.8c-0.8,0-1.3-0.6-1.3-1.5c0-1,0.5-1.5,1.3-1.5c0.5,0,0.9,0.2,1.2,0.6V12
			C45.4,12.6,44.9,12.8,44.5,12.8L44.5,12.8z M45.8,8.7c-0.3-0.3-0.8-0.6-1.7-0.6c-1.6,0-2.8,1.3-2.8,3.2s1.2,3.2,2.8,3.2
			c0.8,0,1.3-0.2,1.7-0.6l0.1,0.5h1.7V8.2h-1.7L45.8,8.7z"/>
		<polygon id="Fill-13" class="st1" points="54.4,8.2 52,8.2 50.2,11.1 50.2,5.4 48.3,5.4 48.3,14.4 49.8,14.4 51.2,12.5 52.4,14.4 
			54.5,14.4 52.5,10.8 		"/>
		<path id="Fill-14" class="st1" d="M58.6,12.6L58.6,12.6c-0.3,0.2-0.5,0.2-0.9,0.2c-0.4,0-0.8-0.3-0.8-0.8V9.9h1.7V8.2H57V6.2H55v2
			l0,0l-1.2,1.6h1.3v2.3c0,1.5,1,2.5,2.5,2.5c0.5,0,1-0.1,1.4-0.4h0.1L58.6,12.6z"/>
		<path id="Fill-15" class="st2" d="M8.5,1.5c4.7,0,8.5,3.8,8.5,8.5s-3.8,8.5-8.5,8.5S0,14.7,0,10S3.8,1.5,8.5,1.5"/>
		<path id="Fill-16" class="st3" d="M12.9,9.9c0,2.5-2,4.5-4.5,4.5s-4.5-2-4.5-4.5S6,5.5,8.5,5.5S12.9,7.4,12.9,9.9"/>
		<path id="Fill-17" class="st4" d="M4,9.9c0-2.5,2-4.4,4.5-4.4S13,7.5,13,10s-2,4.5-4.5,4.5C6,14.4,4,12.5,4,9.9 M14.8,9.9
			c0-1.4-0.4-2.7-1.2-3.7l0.9-0.9c-0.4-0.5-1-1.1-1.5-1.5l-0.9,0.9C11.1,4,9.8,3.6,8.5,3.6C7.1,3.6,5.8,4,4.8,4.7l-1-0.9
			c-0.5,0.4-1.1,1-1.5,1.5l0.9,0.9C2.5,7.3,2,8.6,2,9.9c0,1.4,0.4,2.7,1.2,3.7l-0.9,0.9c0.4,0.5,1,1.1,1.5,1.5l0.9-0.9
			c1.1,0.8,2.4,1.2,3.7,1.2c1.4,0,2.7-0.4,3.7-1.2l0.9,0.9c0.5-0.4,1.1-1,1.5-1.5l-0.9-0.9C14.4,12.6,14.8,11.3,14.8,9.9"/>
		<path id="Fill-18" class="st5" d="M16.8,10.4l-2.9-3.9l0.6-0.6c-0.1-0.1-0.2-0.2-0.2-0.3l-0.6,0.6c0.8,1.1,1.2,2.4,1.2,3.7
			c0,1.4-0.4,2.7-1.2,3.7l0.9,0.9c-0.4,0.5-1,1.1-1.5,1.5l-0.9-0.9c-1.1,0.8-2.4,1.2-3.7,1.2c-1.4,0-2.7-0.4-3.7-1.2l-1,1
			c-0.4-0.3-0.9-0.8-1.3-1.2l-0.1,0.1c0.4,0.5,1,1.1,1.5,1.5l0.8-0.8l1.7,2.4C6,18,5.6,17.8,5.2,17.6c-1-0.4-1.9-1-2.7-1.8
			c-0.8-0.8-1.4-1.6-1.8-2.7S0,11,0,9.9s0.2-2.3,0.6-3.2s1-1.9,1.8-2.7c0.9-0.6,1.7-1.3,2.7-1.7c1.1-0.4,2.2-0.6,3.2-0.6
			s2.3,0.2,3.2,0.6s1.9,1,2.7,1.8c0.8,0.8,1.4,1.6,1.8,2.7s0.6,2.2,0.6,3.2C16.8,10.1,16.8,10.2,16.8,10.4L16.8,10.4z M16.9,10.5
			c0-0.2,0-0.4,0-0.6c0-4.7-3.8-8.5-8.5-8.5C3.8,1.5,0,5.3,0,9.9c0,4.7,3.8,8.5,8.5,8.5l0,0l0,0C12.9,18.4,16.6,14.9,16.9,10.5
			C16.9,10.6,16.9,10.6,16.9,10.5L16.9,10.5z"/>
		<path id="Fill-19" class="st5" d="M2.7,5.7c-0.1,0-0.1,0.1-0.2,0.2l0.6,0.5c0,0,0.1-0.1,0.1-0.2L2.7,5.7z"/>
		<path id="Fill-20" class="st6" d="M4.5,10.4c0-2.5,2-4.5,4.5-4.5c1.1,0,2.2,0.4,2.9,1.1c-0.9-1-2-1.6-3.4-1.6C6,5.5,4,7.4,4,9.9
			c0,1.4,0.6,2.6,1.6,3.4C4.8,12.6,4.5,11.6,4.5,10.4"/>
		<path id="Fill-21" class="st4" d="M8.5,12c-1.2,0-2.2-1-2.2-2.2s1-2.2,2.2-2.2s2.2,1,2.2,2.2C10.5,11.1,9.6,12,8.5,12z"/>
		<path id="Fill-22" class="st6" d="M10.3,8.8c0.2,0.3,0.3,0.6,0.3,1.1c0,1.2-1,2.2-2.2,2.2c-0.6,0-1.2-0.3-1.6-0.8
			c0.3,0.6,1.1,1.1,1.8,1.1c1.2,0,2.2-1,2.2-2.2C10.8,9.7,10.6,9.2,10.3,8.8"/>
		<path id="Fill-23" class="st7" d="M8.5,5.3c-0.6,0-1.3,0.2-1.8,0.4c-0.5,0.2-1.1,0.5-1.5,1c-0.4,0.4-0.8,1-1,1.5
			C4,8.7,3.9,9.4,3.9,9.9c0,0.6,0.1,1.2,0.3,1.8c0.2,0.5,0.5,1.1,1,1.5c0.4,0.4,1,0.8,1.5,1c0.5,0.2,1.2,0.3,1.8,0.3
			c0.6,0,1.2-0.1,1.8-0.3c0.5-0.2,1.1-0.5,1.5-1c0.4-0.4,0.8-1,1-1.5c0.2-0.5,0.3-1.2,0.3-1.8c0-0.6-0.1-1.2-0.3-1.8
			c-0.2-0.5-0.5-1.1-1-1.5c-0.4-0.4-1-0.8-1.5-1C9.7,5.5,9,5.3,8.5,5.3 M8.5,5.5c2.5,0,4.5,2,4.5,4.5s-2,4.5-4.5,4.5S4,12.5,4,10
			S6,5.5,8.5,5.5"/>
	</g>
</g>
<g>
	
		<linearGradient id="SVGID_1_" gradientUnits="userSpaceOnUse" x1="121.7" y1="12.95" x2="134.7" y2="12.95" gradientTransform="matrix(1 0 0 -1 0 22)">
		<stop  offset="0.5" style="stop-color:#FDBB00"/>
		<stop  offset="0.5053" style="stop-color:#D7D7D7"/>
	</linearGradient>
	<path class="st8" d="M134.7,7.7c0,0.1-0.1,0.2-0.2,0.4l-2.8,2.8l0.7,3.9c0,0,0,0.1,0,0.2c0,0.1,0,0.2-0.1,0.3s-0.1,0.1-0.2,0.1
		c-0.1,0-0.2,0-0.3-0.1l-3.5-1.8l-3.5,1.8c-0.1,0.1-0.2,0.1-0.3,0.1c-0.1,0-0.2,0-0.2-0.1S124,15,124,14.9c0,0,0-0.1,0-0.2l0.7-3.9
		L121.9,8c-0.1-0.1-0.2-0.3-0.2-0.4c0-0.2,0.1-0.3,0.4-0.4l3.9-0.6l1.8-3.6c0.1-0.2,0.2-0.3,0.4-0.3c0.2,0,0.3,0.1,0.4,0.3l1.8,3.6
		l3.9,0.6C134.5,7.4,134.7,7.5,134.7,7.7z"/>
</g>
</svg>
